<?xml version="1.0" encoding="UTF-8" standalone="no"?>
<!DOCTYPE svg PUBLIC "-//W3C//DTD SVG 1.1//EN" "http://www.w3.org/Graphics/SVG/1.1/DTD/svg11.dtd">
<svg xmlns="http://www.w3.org/2000/svg" xmlns:xlink="http://www.w3.org/1999/xlink" xmlns:ev="http://www.w3.org/2001/xml-events"
		width="8.19071in" height="7.53229in" viewBox="0 0 589.731 542.325" xml:space="preserve" color-interpolation-filters="sRGB"
		class="st23">
	<style type="text/css">
	<![CDATA[
		.st1 {visibility:visible}
		.st2 {fill:#cdcdcd;fill-opacity:0.5;stroke:#cdcdcd;stroke-linecap:round;stroke-linejoin:round;stroke-opacity:0.5}
		.st3 {fill:url(#grad0-6);stroke:#404040;stroke-linecap:round;stroke-linejoin:round;stroke-width:0.25}
		.st4 {fill:#000000;font-family:Calibri;font-size:1.16666em}
		.st5 {fill:url(#grad0-13);stroke:#404040;stroke-linecap:round;stroke-linejoin:round;stroke-width:0.25}
		.st6 {fill:url(#grad0-20);stroke:#404040;stroke-linecap:round;stroke-linejoin:round;stroke-width:0.25}
		.st7 {fill:url(#grad0-27);stroke:#404040;stroke-linecap:round;stroke-linejoin:round;stroke-width:0.25}
		.st8 {fill:none;stroke:none;stroke-linecap:round;stroke-linejoin:round;stroke-width:0.25}
		.st9 {fill:#000000;font-family:Calibri;font-size:1.00001em}
		.st10 {font-size:1em}
		.st11 {fill:url(#grad0-61);stroke:#404040;stroke-linecap:round;stroke-linejoin:round;stroke-width:0.25}
		.st12 {fill:url(#grad0-68);stroke:#404040;stroke-linecap:round;stroke-linejoin:round;stroke-width:0.25}
		.st13 {marker-end:url(#mrkr5-107);stroke:#404040;stroke-linecap:round;stroke-linejoin:round;stroke-width:1}
		.st14 {fill:#404040;fill-opacity:1;stroke:#404040;stroke-opacity:1;stroke-width:0.28409090909091}
		.st15 {fill:url(#grad0-179);stroke:#404040;stroke-linecap:round;stroke-linejoin:round;stroke-width:0.25}
		.st16 {fill:#ff00ff;fill-opacity:0;stroke:#404040;stroke-linecap:round;stroke-linejoin:round;stroke-opacity:0;stroke-width:0.72}
		.st17 {fill:url(#grad12-211);stroke:#ffffff;stroke-linecap:round;stroke-linejoin:round;stroke-width:0.72}
		.st18 {fill:url(#grad0-217);stroke:#ffffff;stroke-linecap:round;stroke-linejoin:round;stroke-width:0.72}
		.st19 {fill:url(#grad11-224);stroke:#000000;stroke-linecap:round;stroke-linejoin:round;stroke-width:0.72}
		.st20 {stroke:#404040;stroke-linecap:round;stroke-linejoin:round;stroke-width:1.5}
		.st21 {stroke:#ffffff;stroke-linecap:round;stroke-linejoin:round;stroke-width:0.72}
		.st22 {fill:url(#grad10-241);stroke:#000000;stroke-linecap:round;stroke-linejoin:round;stroke-width:0.72}
		.st23 {fill:none;fill-rule:evenodd;font-size:12px;overflow:visible;stroke-linecap:square;stroke-miterlimit:3}
	]]>
	</style>

	<defs id="Patterns_And_Gradients">
		<linearGradient id="grad0-6" x1="0" y1="0" x2="1" y2="0" gradientTransform="rotate(270 0.5 0.5)">
			<stop offset="0" stop-color="#c6d09f" stop-opacity="1"/>
			<stop offset="1" stop-color="#d1dab4" stop-opacity="1"/>
		</linearGradient>
		<linearGradient id="grad0-13" x1="0" y1="0" x2="1" y2="0" gradientTransform="rotate(270 0.5 0.5)">
			<stop offset="0" stop-color="#beb6d1" stop-opacity="1"/>
			<stop offset="1" stop-color="#cfc8dd" stop-opacity="1"/>
		</linearGradient>
		<linearGradient id="grad0-20" x1="0" y1="0" x2="1" y2="0" gradientTransform="rotate(270 0.5 0.5)">
			<stop offset="0" stop-color="#ff7b7b" stop-opacity="1"/>
			<stop offset="1" stop-color="#ff9999" stop-opacity="1"/>
		</linearGradient>
		<linearGradient id="grad0-27" x1="0" y1="0" x2="1" y2="0" gradientTransform="rotate(270 0.5 0.5)">
			<stop offset="0" stop-color="#c9c9c9" stop-opacity="1"/>
			<stop offset="1" stop-color="#d8d8d8" stop-opacity="1"/>
		</linearGradient>
		<linearGradient id="grad0-61" x1="0" y1="0" x2="1" y2="0" gradientTransform="rotate(270 0.5 0.5)">
			<stop offset="0" stop-color="#e1e100" stop-opacity="1"/>
			<stop offset="1" stop-color="#ffff00" stop-opacity="1"/>
		</linearGradient>
		<linearGradient id="grad0-68" x1="0" y1="0" x2="1" y2="0" gradientTransform="rotate(270 0.5 0.5)">
			<stop offset="0" stop-color="#f2c59f" stop-opacity="1"/>
			<stop offset="1" stop-color="#f6d5b9" stop-opacity="1"/>
		</linearGradient>
		<linearGradient id="grad0-104" x1="0" y1="0" x2="1" y2="0" gradientTransform="rotate(270 0.5 0.5)">
			<stop offset="0" stop-color="#f0f0f0" stop-opacity="1"/>
			<stop offset="1" stop-color="#ffffff" stop-opacity="1"/>
		</linearGradient>
		<linearGradient id="grad0-179" x1="0" y1="0" x2="1" y2="0" gradientTransform="rotate(270 0.5 0.5)">
			<stop offset="0" stop-color="#c7cfe7" stop-opacity="1"/>
			<stop offset="1" stop-color="#dbe0ef" stop-opacity="1"/>
		</linearGradient>
		<pattern id="grad12-211" x="0" y="0" width="1" height="1" patternContentUnits="objectBoundingBox">
			<path d="M 0 0 L 0 1 L 1 1 z" style="fill:url(#grad0-212)"/>
			<path d="M 0 0 L 1 0 L 1 1 z" style="fill:url(#grad0-213)"/>
		</pattern>
		<linearGradient id="grad0-212" x1="0" y1="0" x2="1" y2="0" gradientTransform="rotate(90 0.5 0.5)">
			<stop offset="0" stop-color="#eaeaea" stop-opacity="1"/>
			<stop offset="1" stop-color="#dbdbdb" stop-opacity="1"/>
		</linearGradient>
		<linearGradient id="grad0-213" x1="0" y1="0" x2="1" y2="0" gradientTransform="rotate(360 0.5 0.5)">
			<stop offset="0" stop-color="#eaeaea" stop-opacity="1"/>
			<stop offset="1" stop-color="#dbdbdb" stop-opacity="1"/>
		</linearGradient>
		<linearGradient id="grad0-217" x1="0" y1="0" x2="1" y2="0" gradientTransform="rotate(270 0.5 0.5)">
			<stop offset="0" stop-color="#ffffff" stop-opacity="1"/>
			<stop offset="1" stop-color="#f2f2f2" stop-opacity="1"/>
		</linearGradient>
		<pattern id="grad11-224" x="0" y="0" width="1" height="1" patternContentUnits="objectBoundingBox">
			<path d="M 0 1 L 0 0 L 1 0 z" style="fill:url(#grad0-225)"/>
			<path d="M 0 1 L 1 1 L 1 0 z" style="fill:url(#grad0-226)"/>
		</pattern>
		<linearGradient id="grad0-225" x1="0" y1="0" x2="1" y2="0" gradientTransform="rotate(180 0.5 0.5)">
			<stop offset="0" stop-color="#f0f0f0" stop-opacity="1"/>
			<stop offset="1" stop-color="#ffffff" stop-opacity="1"/>
		</linearGradient>
		<linearGradient id="grad0-226" x1="0" y1="0" x2="1" y2="0" gradientTransform="rotate(90 0.5 0.5)">
			<stop offset="0" stop-color="#f0f0f0" stop-opacity="1"/>
			<stop offset="1" stop-color="#ffffff" stop-opacity="1"/>
		</linearGradient>
		<pattern id="grad10-241" x="0" y="0" width="1" height="1" patternContentUnits="objectBoundingBox">
			<path d="M 0.5 0.5 L 0 0 L 0 1 z" style="fill:url(#grad0-242)"/>
			<path d="M 0.5 0.5 L 1 0 L 1 1 z" style="fill:url(#grad0-243)"/>
			<path d="M 0.5 0.5 L 0 0 L 1 0 z" style="fill:url(#grad0-244)"/>
			<path d="M 0.5 0.5 L 0 1 L 1 1 z" style="fill:url(#grad0-245)"/>
		</pattern>
		<linearGradient id="grad0-242" x1="0" y1="0" x2="1" y2="0" gradientTransform="rotate(180 0.5 0.5)">
			<stop offset="0" stop-color="#ffffff" stop-opacity="1"/>
			<stop offset="1" stop-color="#c6d1e3" stop-opacity="1"/>
		</linearGradient>
		<linearGradient id="grad0-243" x1="0" y1="0" x2="1" y2="0" gradientTransform="rotate(360 0.5 0.5)">
			<stop offset="0" stop-color="#ffffff" stop-opacity="1"/>
			<stop offset="1" stop-color="#c6d1e3" stop-opacity="1"/>
		</linearGradient>
		<linearGradient id="grad0-244" x1="0" y1="0" x2="1" y2="0" gradientTransform="rotate(270 0.5 0.5)">
			<stop offset="0" stop-color="#ffffff" stop-opacity="1"/>
			<stop offset="1" stop-color="#c6d1e3" stop-opacity="1"/>
		</linearGradient>
		<linearGradient id="grad0-245" x1="0" y1="0" x2="1" y2="0" gradientTransform="rotate(90 0.5 0.5)">
			<stop offset="0" stop-color="#ffffff" stop-opacity="1"/>
			<stop offset="1" stop-color="#c6d1e3" stop-opacity="1"/>
		</linearGradient>
	</defs>
	<defs id="Markers">
		<g id="lend5">
			<path d="M 2 1 L 0 0 L 1.98117 -0.993387 C 1.67173 -0.364515 1.67301 0.372641 1.98465 1.00043 " style="stroke:none"/>
		</g>
		<marker id="mrkr5-107" class="st14" refX="-6.16" orient="auto" markerUnits="strokeWidth" overflow="visible">
			<use xlink:href="#lend5" transform="scale(-3.52,-3.52) "/>
		</marker>
	</defs>
	<g>
		<title>Page-1</title>
		<g id="shape1-1" transform="translate(113.511,-166.735)">
			<title>Process</title>
			<desc>gpr</desc>
			<g id="shadow1-2" transform="matrix(1,0,0,1,1.44,1.44)" class="st1">
				<rect x="0" y="499.806" width="113.386" height="42.5197" class="st2"/>
			</g>
			<rect x="0" y="499.806" width="113.386" height="42.5197" class="st3"/>
			<text x="47.28" y="525.27" class="st4">gpr</text>		</g>
		<g id="shape2-8" transform="translate(411.524,-10.8292)">
			<title>Process.2</title>
			<desc>drv</desc>
			<g id="shadow2-9" transform="matrix(1,0,0,1,1.44,1.44)" class="st1">
				<rect x="0" y="499.806" width="85.0394" height="42.5197" class="st2"/>
			</g>
			<rect x="0" y="499.806" width="85.0394" height="42.5197" class="st5"/>
			<text x="33.24" y="525.27" class="st4">drv</text>		</g>
		<g id="shape4-15" transform="translate(411.524,-81.6953)">
			<title>Process.4</title>
			<desc>head</desc>
			<g id="shadow4-16" transform="matrix(1,0,0,1,1.44,1.44)" class="st1">
				<rect x="0" y="230.514" width="85.0394" height="311.811" class="st2"/>
			</g>
			<rect x="0" y="230.514" width="85.0394" height="311.811" class="st6"/>
			<text x="28.33" y="390.62" class="st4">head</text>		</g>
		<g id="shape5-22" transform="translate(411.149,-478.546)">
			<title>Start/End</title>
			<desc>Controller</desc>
			<g id="shadow5-23" transform="matrix(1,0,0,1,1.44,1.44)" class="st1">
				<path d="M21.26 542.33 L63.78 542.33 A21.2598 21.2598 -180 0 0 63.78 499.81 L21.26 499.81 A21.2598 21.2598 -180 1
							 0 21.26 542.33 Z" class="st2"/>
			</g>
			<path d="M21.26 542.33 L63.78 542.33 A21.2598 21.2598 -180 0 0 63.78 499.81 L21.26 499.81 A21.2598 21.2598 -180 1 0 21.26
						 542.33 Z" class="st7"/>
			<text x="13.81" y="525.27" class="st4">Controller</text>		</g>
		<g id="shape22-29" transform="translate(446.582,-513.979)">
			<title>Dynamic connector.22</title>
		</g>
		<g id="shape24-30" transform="translate(14.2982,-166.735)">
			<title>Sheet.24</title>
			<desc>graphic primitive / text renderer</desc>
			<rect x="0" y="499.806" width="85.0394" height="42.5197" class="st8"/>
			<text x="24.51" y="510.27" class="st9">graphic <tspan x="6.01" dy="1.2em" class="st10">primitive </tspan>/ text <tspan
						x="20.98" dy="1.2em" class="st10">renderer</tspan></text>		</g>
		<g id="shape25-35" transform="translate(510.736,-10.8292)">
			<title>Sheet.25</title>
			<desc>driver base class</desc>
			<rect x="0" y="499.806" width="56.1929" height="42.5197" class="st8"/>
			<text x="13.69" y="517.47" class="st9">driver <tspan x="3.9" dy="1.2em" class="st10">base class</tspan></text>		</g>
		<g id="shape27-39" transform="translate(510.361,-216.341)">
			<title>Sheet.27</title>
			<desc>custom driver class</desc>
			<rect x="0" y="499.806" width="65.0719" height="42.5197" class="st8"/>
			<text x="14.53" y="517.47" class="st9">custom <tspan x="5.29" dy="1.2em" class="st10">driver class</tspan></text>		</g>
		<g id="shape29-43" transform="translate(510.361,-478.546)">
			<title>Sheet.29</title>
			<desc>hardware</desc>
			<rect x="0" y="499.806" width="56.5679" height="42.5197" class="st8"/>
			<text x="4.77" y="524.67" class="st9">hardware</text>		</g>
		<g id="shape50-46" transform="translate(14.2982,-308.467)">
			<title>Sheet.50</title>
			<desc>vertex / pixel shader pipe</desc>
			<rect x="0" y="457.286" width="85.0394" height="85.0394" class="st8"/>
			<text x="10.62" y="496.21" class="st9">vertex / pixel <tspan x="13.89" dy="1.2em" class="st10">shader pipe</tspan></text>		</g>
		<g id="shape54-50" transform="translate(255.243,-166.316)">
			<title>Process.54</title>
			<desc>txr</desc>
			<g id="shadow54-51" transform="matrix(1,0,0,1,1.44,1.44)" class="st1">
				<rect x="0" y="499.387" width="113.761" height="42.938" class="st2"/>
			</g>
			<rect x="0" y="499.387" width="113.761" height="42.938" class="st3"/>
			<text x="49.06" y="525.06" class="st4">txr</text>		</g>
		<g id="shape78-56" transform="translate(113.136,-237.601)">
			<title>Rectangle.11</title>
			<desc>dc</desc>
			<g id="shadow78-57" transform="matrix(1,0,0,1,1.44,1.44)" class="st1">
				<rect x="0" y="499.806" width="255.493" height="42.5197" class="st2"/>
			</g>
			<rect x="0" y="499.806" width="255.493" height="42.5197" class="st11"/>
			<text x="121.11" y="525.27" class="st4">dc</text>		</g>
		<g id="shape79-63" transform="translate(-343.4,233.858) rotate(-90)">
			<title>Rectangle.11.79</title>
			<desc>gradient</desc>
			<g id="shadow79-64" transform="matrix(1,0,0,1,-1.44,1.44)" class="st1">
				<rect x="0" y="513.979" width="85.0394" height="28.3465" class="st2"/>
			</g>
			<rect x="0" y="513.979" width="85.0394" height="28.3465" class="st12"/>
			<text x="22.05" y="531.75" class="st9">gradient</text>		</g>
		<g id="shape80-70" transform="translate(-230.014,233.858) rotate(-90)">
			<title>Rectangle.80</title>
			<desc>clipping</desc>
			<g id="shadow80-71" transform="matrix(1,0,0,1,-1.44,1.44)" class="st1">
				<rect x="0" y="513.979" width="85.0394" height="28.3465" class="st2"/>
			</g>
			<rect x="0" y="513.979" width="85.0394" height="28.3465" class="st12"/>
			<text x="23.57" y="531.75" class="st9">clipping</text>		</g>
		<g id="shape81-76" transform="translate(-173.321,233.858) rotate(-90)">
			<title>Rectangle.81</title>
			<desc>alpha blend</desc>
			<g id="shadow81-77" transform="matrix(1,0,0,1,-1.44,1.44)" class="st1">
				<rect x="0" y="513.979" width="85.0394" height="28.3465" class="st2"/>
			</g>
			<rect x="0" y="513.979" width="85.0394" height="28.3465" class="st12"/>
			<text x="13.91" y="531.75" class="st9">alpha blend</text>		</g>
		<g id="shape82-82" transform="translate(-286.707,233.858) rotate(-90)">
			<title>Rectangle.82</title>
			<desc>zoom</desc>
			<g id="shadow82-83" transform="matrix(1,0,0,1,-1.44,1.44)" class="st1">
				<rect x="0" y="513.979" width="85.0394" height="28.3465" class="st2"/>
			</g>
			<rect x="0" y="513.979" width="85.0394" height="28.3465" class="st12"/>
			<text x="29.03" y="531.75" class="st9">zoom</text>		</g>
		<g id="shape83-88" transform="translate(113.511,-81.6953)">
			<title>Rectangle.11.83</title>
			<desc>tc</desc>
			<g id="shadow83-89" transform="matrix(1,0,0,1,1.44,1.44)" class="st1">
				<rect x="0" y="499.806" width="255.493" height="42.5197" class="st2"/>
			</g>
			<rect x="0" y="499.806" width="255.493" height="42.5197" class="st11"/>
			<text x="122.44" y="525.27" class="st4">tc</text>		</g>
		<g id="shape85-94" transform="translate(14.2982,-237.601)">
			<title>Sheet.85</title>
			<desc>drawing context</desc>
			<rect x="0" y="499.806" width="85.0497" height="42.5197" class="st8"/>
			<text x="2.95" y="524.67" class="st9">drawing context</text>		</g>
		<g id="shape86-97" transform="translate(14.2982,-81.6953)">
			<title>Sheet.86</title>
			<desc>text context</desc>
			<rect x="0" y="499.806" width="85.0497" height="42.5197" class="st8"/>
			<text x="13.11" y="524.67" class="st9">text context</text>		</g>
		<g id="shape88-100" transform="translate(163.117,-209.254)">
			<title>Dynamic connector</title>
			<path d="M7.09 542.33 L7.09 520.14" class="st13"/>
		</g>
		<g id="shape89-108" transform="translate(318.929,-209.254)">
			<title>Dynamic connector.89</title>
			<path d="M-6.81 542.33 L-7.25 520.14" class="st13"/>
		</g>
		<g id="shape91-114" transform="translate(198.925,-358.073)">
			<title>Dynamic connector.91</title>
			<path d="M0 549.41 L22.19 549.41" class="st13"/>
		</g>
		<g id="shape92-120" transform="translate(255.618,-358.073)">
			<title>Dynamic connector.92</title>
			<path d="M0 549.41 L22.19 549.41" class="st13"/>
		</g>
		<g id="shape93-126" transform="translate(312.311,-343.9)">
			<title>Dynamic connector.93</title>
			<path d="M0 535.24 L22.19 535.24" class="st13"/>
		</g>
		<g id="shape95-132" transform="translate(368.629,-251.774)">
			<title>Dynamic connector.95</title>
			<path d="M0 535.24 L36.73 535.24" class="st13"/>
		</g>
		<g id="shape97-138" transform="translate(369.004,-343.9)">
			<title>Dynamic connector.97</title>
			<path d="M0 535.24 L36.36 535.24" class="st13"/>
		</g>
		<g id="shape100-144" transform="translate(369.004,-95.8685)">
			<title>Dynamic connector.100</title>
			<path d="M0 535.24 L36.36 535.24" class="st13"/>
		</g>
		<g id="shape101-150" transform="translate(446.957,-53.3489)">
			<title>Dynamic connector.101</title>
			<path d="M7.09 542.33 L7.09 520.14" class="st13"/>
		</g>
		<g id="shape102-156" transform="translate(-400.468,233.858) rotate(-90)">
			<title>Rectangle.102</title>
			<desc>brush</desc>
			<g id="shadow102-157" transform="matrix(1,0,0,1,-1.44,1.44)" class="st1">
				<rect x="0" y="513.979" width="85.0394" height="28.3465" class="st2"/>
			</g>
			<rect x="0" y="513.979" width="85.0394" height="28.3465" class="st12"/>
			<text x="28.62" y="531.75" class="st9">brush</text>		</g>
		<g id="shape103-162" transform="translate(141.857,-343.9)">
			<title>Dynamic connector.103</title>
			<path d="M0 535.24 L22.56 535.24" class="st13"/>
		</g>
		<g id="shape105-168" transform="translate(120.597,-280.121)">
			<title>Dynamic connector.105</title>
			<path d="M7.09 542.33 L7.09 520.14" class="st13"/>
		</g>
		<g id="shape106-174" transform="translate(411.149,-421.853)">
			<title>Rectangle.11.106</title>
			<desc>io</desc>
			<g id="shadow106-175" transform="matrix(1,0,0,1,1.44,1.44)" class="st1">
				<rect x="0" y="513.979" width="85.0394" height="28.3465" class="st2"/>
			</g>
			<rect x="0" y="513.979" width="85.0394" height="28.3465" class="st15"/>
			<text x="37.22" y="532.35" class="st4">io</text>		</g>
		<g id="shape107-181" transform="translate(510.361,-421.853)">
			<title>Sheet.107</title>
			<desc>io abstraction</desc>
			<rect x="0" y="513.979" width="63.7795" height="28.3465" class="st8"/>
			<text x="27.35" y="524.55" class="st9">io <tspan x="4.3" dy="1.2em" class="st10">abstraction</tspan></text>		</g>
		<g id="shape108-185" transform="translate(460.942,-393.506)">
			<title>Dynamic connector.108</title>
			<path d="M-6.9 542.33 L-7.19 520.14" class="st13"/>
		</g>
		<g id="shape109-191" transform="translate(446.582,-450.199)">
			<title>Dynamic connector.109</title>
			<path d="M7.09 542.33 L7.09 520.14" class="st13"/>
		</g>
		<g id="shape110-197" transform="translate(411.149,-492.719)">
			<title>Dynamic connector.110</title>
			<path d="M0 535.24 L-38.34 535.24" class="st13"/>
		</g>
		<g id="group6-203" transform="translate(350.487,-478.546)">
			<title>LCD monitor</title>
			<g id="shape7-204">
				<title>Sheet.7</title>
				<g id="shadow7-205" transform="matrix(1,0,0,1,1.44,1.44)" class="st1">
					<path d="M24.13 536.59 A66.6962 55.4688 2.98 0 1 7.97 528.72 L4.31 530.84 L4.31 531.87 L22.66 542.33 L32.31 536.8
								 L32.31 534.88 L27.66 531.7 L27.66 513.54 A65.4454 54.4308 -176.31 0 0 3.53 499.81 L0 501.8 A62.8726
								 52.2908 3.6 0 1 24.13 515.54 A66.7594 55.5233 -176.4 0 0 -0 501.8 L0 522.77 A71.2493 59.259 -176.03
								 0 0 7.98 528.71 A71.2493 59.259 -176.03 0 0 24.13 536.59 Z" class="st2"/>
				</g>
				<path d="M24.13 536.59 A66.6962 55.4688 2.98 0 1 7.97 528.72 L4.31 530.84 L4.31 531.87 L22.66 542.33 L32.31 536.8
							 L32.31 534.88 L27.66 531.7 L27.66 513.54 A65.4454 54.4308 -176.31 0 0 3.53 499.81 L0 501.8 A62.8726
							 52.2908 3.6 0 1 24.13 515.54 A66.7594 55.5233 -176.4 0 0 -0 501.8 L0 522.77 A71.2493 59.259 -176.03
							 0 0 7.98 528.71 A71.2493 59.259 -176.03 0 0 24.13 536.59 Z" class="st16"/>
			</g>
			<g id="shape8-208" transform="translate(24.1285,-5.74016)">
				<title>Sheet.8</title>
				<path d="M0 542.33 L3.53 540.33 L3.53 519.28 L0 521.28 L0 542.33 Z" class="st17"/>
			</g>
			<g id="shape9-214" transform="translate(0,-26.7874)">
				<title>Sheet.9</title>
				<path d="M-0 528.59 A62.8726 52.2908 3.6 0 1 24.13 542.33 L27.66 540.33 A65.4454 54.4308 -176.31 0 0 3.53 526.59
							 L0 528.59 Z" class="st18"/>
			</g>
			<g id="shape10-218" transform="translate(4.30866,0)">
				<title>Sheet.10</title>
				<path d="M0 531.87 L18.35 542.33 L28.01 536.8 L28.01 534.88 L23.35 531.7 L23.35 534.59 L19.82 536.59 A66.6962 55.4688
							 2.98 0 1 3.66 528.72 L0 530.84 L0 531.87 Z" class="st18"/>
			</g>
			<g id="shape11-221" transform="translate(-1.57874E-013,-5.74016)">
				<title>Sheet.11</title>
				<path d="M-0 528.51 A71.2493 59.259 -176.03 0 0 24.13 542.33 L24.13 521.28 A66.7594 55.5233 -176.4 0 0 -0 507.54
							 L0 528.51 Z" class="st19"/>
			</g>
			<g id="shape12-227">
				<title>Sheet.12</title>
				<path d="M-0 522.77 A93.6891 77.9281 -175.09 0 0 7.97 528.72 L4.31 530.84 L4.31 531.87 L22.66 542.33 L32.31 536.8
							 L32.31 534.88 L27.66 532.23 L27.66 513.54 A79.5827 66.1888 -176.32 0 0 3.53 499.81 L0 501.8 L0 522.77"
						class="st20"/>
			</g>
			<g id="shape13-230" transform="translate(2.15433,-8.33386)">
				<title>Sheet.13</title>
				<path d="M0 512.94 L0 530.97 L19.82 542.33" class="st21"/>
			</g>
			<g id="shape14-234" transform="translate(8.18646,-1.10551)">
				<title>Sheet.14</title>
				<path d="M0 534.08 L14.39 542.33 L21.97 537.9" class="st21"/>
			</g>
			<g id="shape15-238" transform="translate(2.15433,-8.33386)">
				<title>Sheet.15</title>
				<path d="M0.43 530.67 L19.82 541.73 L19.82 542.33 L19.82 524.21 L0 512.94 L0.43 513.16 L0.43 530.67 Z" class="st22"/>
			</g>
		</g>
	</g>
</svg>
